{
    "asset" : {
        "generator" : "Khronos glTF Blender I/O v1.8.19",
        "version" : "2.0"
    },
    "scene" : 0,
    "scenes" : [
        {
            "name" : "Scene",
            "nodes" : [
                0
            ]
        }
    ],
    "nodes" : [
        {
            "mesh" : 0,
            "name" : "\u6469\u6258\u8f6603"
        }
    ],
    "materials" : [
        {
            "doubleSided" : true,
            "name" : "Material #2",
            "pbrMetallicRoughness" : {
                "baseColorFactor" : [
                    0.45098042488098145,
                    0.16470588743686676,
                    0.08627451211214066,
                    1
                ],
                "metallicFactor" : 0,
                "roughnessFactor" : 0.858578622341156
            }
        },
        {
            "doubleSided" : true,
            "name" : "18 - Defaultdfdf",
            "pbrMetallicRoughness" : {
                "baseColorFactor" : [
                    0.012981977313756943,
                    0.012981977313756943,
                    0.012981977313756943,
                    1
                ],
                "metallicFactor" : 0,
                "roughnessFactor" : 0.858578622341156
            }
        },
        {
            "doubleSided" : true,
            "name" : "18 - Defafgfgfultdfdf",
            "pbrMetallicRoughness" : {
                "baseColorFactor" : [
                    0.08627451211214066,
                    0.08627451211214066,
                    0.08627451211214066,
                    1
                ],
                "metallicFactor" : 0,
                "roughnessFactor" : 0.858578622341156
            }
        },
        {
            "doubleSided" : true,
            "name" : "Material #57",
            "pbrMetallicRoughness" : {
                "baseColorFactor" : [
                    0.011764707043766975,
                    0.011764707043766975,
                    0.011764707043766975,
                    1
                ],
                "metallicFactor" : 0,
                "roughnessFactor" : 0.858578622341156
            }
        },
        {
            "doubleSided" : true,
            "name" : "18 - Defddadfsfsultdfdf",
            "pbrMetallicRoughness" : {
                "baseColorFactor" : [
                    0.0784313753247261,
                    0.0784313753247261,
                    0.0784313753247261,
                    1
                ],
                "metallicFactor" : 0,
                "roughnessFactor" : 0.858578622341156
            }
        },
        {
            "doubleSided" : true,
            "name" : "\u94f62",
            "pbrMetallicRoughness" : {
                "baseColorFactor" : [
                    0.01718255504965782,
                    0.01718255504965782,
                    0.01718255504965782,
                    1
                ],
                "metallicFactor" : 0,
                "roughnessFactor" : 0.858578622341156
            }
        },
        {
            "doubleSided" : true,
            "name" : "Material #57.001",
            "pbrMetallicRoughness" : {
                "baseColorFactor" : [
                    0.011764707043766975,
                    0.011764707043766975,
                    0.011764707043766975,
                    1
                ],
                "metallicFactor" : 0,
                "roughnessFactor" : 0.858578622341156
            }
        },
        {
            "doubleSided" : true,
            "name" : "\u9ed1\u5851\u6599",
            "pbrMetallicRoughness" : {
                "baseColorFactor" : [
                    0.09803922474384308,
                    0.09803922474384308,
                    0.09803922474384308,
                    1
                ],
                "metallicFactor" : 0,
                "roughnessFactor" : 0.858578622341156
            }
        }
    ],
    "meshes" : [
        {
            "name" : "\u7f51\u683c.457",
            "primitives" : [
                {
                    "attributes" : {
                        "POSITION" : 0,
                        "NORMAL" : 1
                    },
                    "indices" : 2,
                    "material" : 0
                },
                {
                    "attributes" : {
                        "POSITION" : 3,
                        "NORMAL" : 4
                    },
                    "indices" : 5,
                    "material" : 1
                },
                {
                    "attributes" : {
                        "POSITION" : 6,
                        "NORMAL" : 7
                    },
                    "indices" : 8,
                    "material" : 2
                },
                {
                    "attributes" : {
                        "POSITION" : 9,
                        "NORMAL" : 10
                    },
                    "indices" : 11,
                    "material" : 3
                },
                {
                    "attributes" : {
                        "POSITION" : 12,
                        "NORMAL" : 13
                    },
                    "indices" : 14,
                    "material" : 4
                },
                {
                    "attributes" : {
                        "POSITION" : 15,
                        "NORMAL" : 16
                    },
                    "indices" : 17,
                    "material" : 5
                },
                {
                    "attributes" : {
                        "POSITION" : 18,
                        "NORMAL" : 19
                    },
                    "indices" : 20,
                    "material" : 6
                },
                {
                    "attributes" : {
                        "POSITION" : 21,
                        "NORMAL" : 22
                    },
                    "indices" : 23,
                    "material" : 7
                }
            ]
        }
    ],
    "accessors" : [
        {
            "bufferView" : 0,
            "componentType" : 5126,
            "count" : 6123,
            "max" : [
                0.22244340181350708,
                1.07417893409729,
                1.1919175386428833
            ],
            "min" : [
                -0.20178651809692383,
                0.2232978343963623,
                -1.0843409299850464
            ],
            "type" : "VEC3"
        },
        {
            "bufferView" : 1,
            "componentType" : 5126,
            "count" : 6123,
            "type" : "VEC3"
        },
        {
            "bufferView" : 2,
            "componentType" : 5123,
            "count" : 15792,
            "type" : "SCALAR"
        },
        {
            "bufferView" : 3,
            "componentType" : 5126,
            "count" : 194,
            "max" : [
                0.053552161902189255,
                1.0815651416778564,
                -0.49997493624687195
            ],
            "min" : [
                -0.1488676518201828,
                0.878446102142334,
                -0.6862630248069763
            ],
            "type" : "VEC3"
        },
        {
            "bufferView" : 4,
            "componentType" : 5126,
            "count" : 194,
            "type" : "VEC3"
        },
        {
            "bufferView" : 5,
            "componentType" : 5123,
            "count" : 1008,
            "type" : "SCALAR"
        },
        {
            "bufferView" : 6,
            "componentType" : 5126,
            "count" : 400,
            "max" : [
                0.2058020830154419,
                0.9309331178665161,
                0.7175449728965759
            ],
            "min" : [
                -0.1135631799697876,
                0.6808217763900757,
                0.15176551043987274
            ],
            "type" : "VEC3"
        },
        {
            "bufferView" : 7,
            "componentType" : 5126,
            "count" : 400,
            "type" : "VEC3"
        },
        {
            "bufferView" : 8,
            "componentType" : 5123,
            "count" : 1716,
            "type" : "SCALAR"
        },
        {
            "bufferView" : 9,
            "componentType" : 5126,
            "count" : 2629,
            "max" : [
                0.5351088643074036,
                1.376104474067688,
                1.0199239253997803
            ],
            "min" : [
                -0.5351089835166931,
                0.10759252309799194,
                -1.0873523950576782
            ],
            "type" : "VEC3"
        },
        {
            "bufferView" : 10,
            "componentType" : 5126,
            "count" : 2629,
            "type" : "VEC3"
        },
        {
            "bufferView" : 11,
            "componentType" : 5123,
            "count" : 4512,
            "type" : "SCALAR"
        },
        {
            "bufferView" : 12,
            "componentType" : 5126,
            "count" : 460,
            "max" : [
                0.49630409479141235,
                1.3354216814041138,
                0.03842517361044884
            ],
            "min" : [
                -0.495611310005188,
                1.2404872179031372,
                -0.17205296456813812
            ],
            "type" : "VEC3"
        },
        {
            "bufferView" : 13,
            "componentType" : 5126,
            "count" : 460,
            "type" : "VEC3"
        },
        {
            "bufferView" : 14,
            "componentType" : 5123,
            "count" : 1008,
            "type" : "SCALAR"
        },
        {
            "bufferView" : 15,
            "componentType" : 5126,
            "count" : 1968,
            "max" : [
                0.44827231764793396,
                1.4281855821609497,
                -0.0701383650302887
            ],
            "min" : [
                -0.4449578821659088,
                0.3685891330242157,
                -0.8725578784942627
            ],
            "type" : "VEC3"
        },
        {
            "bufferView" : 16,
            "componentType" : 5126,
            "count" : 1968,
            "type" : "VEC3"
        },
        {
            "bufferView" : 17,
            "componentType" : 5123,
            "count" : 3546,
            "type" : "SCALAR"
        },
        {
            "bufferView" : 18,
            "componentType" : 5126,
            "count" : 50613,
            "max" : [
                0.39697912335395813,
                1.4415836334228516,
                1.0231223106384277
            ],
            "min" : [
                -0.46388277411460876,
                0.09581655263900757,
                -1.1001155376434326
            ],
            "type" : "VEC3"
        },
        {
            "bufferView" : 19,
            "componentType" : 5126,
            "count" : 50613,
            "type" : "VEC3"
        },
        {
            "bufferView" : 20,
            "componentType" : 5123,
            "count" : 104817,
            "type" : "SCALAR"
        },
        {
            "bufferView" : 21,
            "componentType" : 5126,
            "count" : 1280,
            "max" : [
                0.1620860993862152,
                0.6619243025779724,
                1.115020513534546
            ],
            "min" : [
                -0.1692182868719101,
                0,
                -1.1919176578521729
            ],
            "type" : "VEC3"
        },
        {
            "bufferView" : 22,
            "componentType" : 5126,
            "count" : 1280,
            "type" : "VEC3"
        },
        {
            "bufferView" : 23,
            "componentType" : 5123,
            "count" : 6912,
            "type" : "SCALAR"
        }
    ],
    "bufferViews" : [
        {
            "buffer" : 0,
            "byteLength" : 73476,
            "byteOffset" : 0
        },
        {
            "buffer" : 0,
            "byteLength" : 73476,
            "byteOffset" : 73476
        },
        {
            "buffer" : 0,
            "byteLength" : 31584,
            "byteOffset" : 146952
        },
        {
            "buffer" : 0,
            "byteLength" : 2328,
            "byteOffset" : 178536
        },
        {
            "buffer" : 0,
            "byteLength" : 2328,
            "byteOffset" : 180864
        },
        {
            "buffer" : 0,
            "byteLength" : 2016,
            "byteOffset" : 183192
        },
        {
            "buffer" : 0,
            "byteLength" : 4800,
            "byteOffset" : 185208
        },
        {
            "buffer" : 0,
            "byteLength" : 4800,
            "byteOffset" : 190008
        },
        {
            "buffer" : 0,
            "byteLength" : 3432,
            "byteOffset" : 194808
        },
        {
            "buffer" : 0,
            "byteLength" : 31548,
            "byteOffset" : 198240
        },
        {
            "buffer" : 0,
            "byteLength" : 31548,
            "byteOffset" : 229788
        },
        {
            "buffer" : 0,
            "byteLength" : 9024,
            "byteOffset" : 261336
        },
        {
            "buffer" : 0,
            "byteLength" : 5520,
            "byteOffset" : 270360
        },
        {
            "buffer" : 0,
            "byteLength" : 5520,
            "byteOffset" : 275880
        },
        {
            "buffer" : 0,
            "byteLength" : 2016,
            "byteOffset" : 281400
        },
        {
            "buffer" : 0,
            "byteLength" : 23616,
            "byteOffset" : 283416
        },
        {
            "buffer" : 0,
            "byteLength" : 23616,
            "byteOffset" : 307032
        },
        {
            "buffer" : 0,
            "byteLength" : 7092,
            "byteOffset" : 330648
        },
        {
            "buffer" : 0,
            "byteLength" : 607356,
            "byteOffset" : 337740
        },
        {
            "buffer" : 0,
            "byteLength" : 607356,
            "byteOffset" : 945096
        },
        {
            "buffer" : 0,
            "byteLength" : 209634,
            "byteOffset" : 1552452
        },
        {
            "buffer" : 0,
            "byteLength" : 15360,
            "byteOffset" : 1762088
        },
        {
            "buffer" : 0,
            "byteLength" : 15360,
            "byteOffset" : 1777448
        },
        {
            "buffer" : 0,
            "byteLength" : 13824,
            "byteOffset" : 1792808
        }
    ],
    "buffers" : [
        {
            "byteLength" : 1806632,
            "uri" : "data:application/octet-stream;base64,"
        }
    ]
}
